{"title":"Seventh.Son.2015.720p.HC.WEBRip.XviD.MP3-RARBG","uid":11772320,"size":3072231471,"categoryP":"video","categoryS":"movies","magnet":"?xt=urn:btih:380b3c60a42ec63c931e5a8f4f8c057125c75b87&amp;dn=Seventh.Son.2015.720p.HC.WEBRip.XviD.MP3-RARBG&amp;tr=udp%3A%2F%2Ftracker.openbittorrent.com%3A80&amp;tr=udp%3A%2F%2Fopen.demonii.com%3A1337&amp;tr=udp%3A%2F%2Ftracker.coppersurfer.tk%3A6969&amp;tr=udp%3A%2F%2Fexodus.desync.com%3A6969","seeders":22,"leechers":3,"uploader":"vickey1992","files":4,"time":1427119408,"description":"Info:\n\n[mediainfo]\n\nFormat : AVI\nFormat/Info : Audio Video Interleave\nFormat profile : OpenDML\nFile size : 2.86 GiB\nDuration : 1h 42mn\nOverall bit rate : 4 000 Kbps\nMovie name : RARBG.COM - Seventh.Son.2015.720p.HC.WEBRip.XviD.MP3-RARBG\nWriting library : VirtualDub build 35491/release\nComment : RARBG.COM - Seventh.Son.2015.720p.HC.WEBRip.XviD.MP3-RARBG\n\nVideo\nID : 0\nFormat : MPEG-4 Visual\nFormat profile : Simple@L5\nFormat settings, BVOP : No\nFormat settings, QPel : No\nFormat settings, GMC : No warppoints\nFormat settings, Matrix : Default (H.263)\nCodec ID : XVID\nCodec ID/Hint : XviD\nDuration : 1h 42mn\nBit rate : 3 794 Kbps\nWidth : 1 280 pixels\nHeight : 532 pixels\nDisplay aspect ratio : 2.40:1\nFrame rate : 24.000 fps\nColor space : YUV\nChroma subsampling : 4:2:0\nBit depth : 8 bits\nScan type : Progressive\nCompression mode : Lossy\nBits/(Pixel*Frame) : 0.232\nStream size : 2.71 GiB (95%)\nWriting library : Lavc56.20.100\n\nAudio\nID : 1\nFormat : MPEG Audio\nFormat version : Version 1\nFormat profile : Layer 3\nMode : Joint stereo\nMode extension : MS Stereo\nCodec ID : 55\nCodec ID/Hint : MP3\nDuration : 1h 42mn\nBit rate mode : Constant\nBit rate : 192 Kbps\nChannel(s) : 2 channels\nSampling rate : 44.1 KHz\nCompression mode : Lossy\nStream size : 141 MiB (5%)\nAlignment : Aligned on interleaves\nInterleave, duration : 26 ms (0.63 video frame)\nInterleave, preload duration : 522 ms\nWriting library : LAME3.99.5\n\n\n\nNotes:\nHardcoded Chinese subtitles.\nGreetz to all! :)","torrent":{"xt":"urn:btih:380b3c60a42ec63c931e5a8f4f8c057125c75b87","amp;dn":"Seventh.Son.2015.720p.HC.WEBRip.XviD.MP3-RARBG","amp;tr":["udp%3A%2F%2Ftracker.openbittorrent.com%3A80","udp%3A%2F%2Fopen.demonii.com%3A1337","udp%3A%2F%2Ftracker.coppersurfer.tk%3A6969","udp%3A%2F%2Fexodus.desync.com%3A6969"],"infoHash":"380b3c60a42ec63c931e5a8f4f8c057125c75b87","infoHashBuffer":{"type":"Buffer","data":[56,11,60,96,164,46,198,60,147,30,90,143,79,140,5,113,37,199,91,135]},"announce":[],"urlList":[]}}